<svg id="Layer_1" data-name="Layer 1" xmlns="http://www.w3.org/2000/svg" viewBox="0 0 200 165"><defs><style>.cls-1{fill:#00b056;}.cls-2{fill:#fff;}</style></defs><rect class="cls-1" width="200" height="165" rx="20"/><path class="cls-2" d="M158.20667,100.67958c-.45655-1.01023-.89966-2.02479-1.36882-3.031a274.46467,274.46467,0,0,0-28.73574-48.12522q-4.09778-5.49674-8.47316-10.7858v70.41516h42.25018Q160.12161,104.8919,158.20667,100.67958Zm-30.10456,0V64.1399a266.77626,266.77626,0,0,1,20.79183,36.53968Z"/><path class="cls-2" d="M102.935,24.10431a275.05147,275.05147,0,0,0-40.11493,76.57527c-.9493,2.81252-1.862,5.63519-2.718,8.47316h51.30608V13.31851Q107.03422,18.60768,102.935,24.10431Zm0,76.57527H71.76509A267.3229,267.3229,0,0,1,102.935,38.72083Z"/><path class="cls-2" d="M46.94366,109.15274h8.809a267.02615,267.02615,0,0,1,44.70525-88.90531L89.75734,26.74566c-2.60277,1.58034-5.19147,3.21519-7.74707,4.8789a275.98527,275.98527,0,0,0-35.06661,77.52818Z"/><path class="cls-2" d="M33.93688,109.15274h8.75025A266.4008,266.4008,0,0,1,59.0742,63.63494q5.69736-12.21807,12.53071-23.70137Q62.9512,46.216,54.74981,53.132q-1.71843,3.435-3.35493,6.92209A274.7096,274.7096,0,0,0,33.93688,109.15274Z"/><path class="cls-2" d="M162.23432,126.825v10.18558l-88.70715.18784-6.37194-10.20089,95.07909-.17253m8.47316-8.48868-118.81812.21576,16.94633,27.12943,101.87179-.21576V118.3363Z"/><path class="cls-2" d="M64.45621,145.68149,47.50994,118.55206H37.51949l16.94632,27.12943Z"/><path class="cls-2" d="M50.22925,145.68149,33.283,118.55206H23.29252l16.94633,27.12943Z"/></svg>