<svg xmlns="http://www.w3.org/2000/svg" data-name="Layer 1" viewBox="0 0 200 165">
  <rect width="200" height="165" fill="#7100d4" class="cls-1" rx="20"/>
  <g fill="#fff">
    <path d="M118 15a172.8 172.8 0 0 0-33.6 34.2C77 45.9 73 42.4 65.6 38.5c.5 12-5 38.6-5 38.6s-12.9-5.5-16.3-8.3c-7.1 35.8 7.3 68.7 20 73.4C52.8 123 55 102.5 53.5 85.8c3.4 1 15.2 6.4 15.2 6.4s7.3-25 8.4-33.8c1.7-.9 10.7 7.4 10.7 7.4S109 35.6 111.3 38c1.2 14.4 11.7 28.1 13.2 41.5 5.3-2 10.6-5.2 16-7.3 6 9.6 7.5 22.2 4.1 71.7 8-18.8 11.8-34 12.9-51.5.7-12.1-3.3-26.1-6-38.3-5 1.9-12.6 4.6-17.6 6.6-6.6-16.8-13.4-30-15.8-45.9z" color="#000"/>
    <path d="M100.8 67s-1.5 6.6-5 12.7c-7.4 12.3-9.4 14.9-13.1 21.9-4.3 8-10 16.8-8.4 25.6a27.4 27.4 0 0 0 15.1 20c11.4 4.6 28.3 4.2 36.6-4.9 6.7-7.4 7-21.8 1.3-30a306.4 306.4 0 0 1-26.5-45.4zm-12.4 53.2a22 22 0 0 0 17.7 15.5l-.2 6.7c-4-.5-12.8-1.9-17.3-6a21 21 0 0 1-6.9-15.6z"/>
  </g>
</svg>
