<?xml version="1.0" encoding="utf-8"?>
<svg viewBox="0 0 1366 645" xmlns="http://www.w3.org/2000/svg">
  <style>
    .bg { fill: #CEE3EC; }
    .panel { fill: #9EC7DA; }
    .box { fill: #fff; }
    .text { 
      fill: #33313B; 
      font-family: sans-serif; 
      font-size: 24px;
      text-anchor: middle;
      dominant-baseline: middle;
    }
    .arrow { fill: none; stroke: #33323C; stroke-width: 3; }
    .circle-inner { fill: #33323C; }
    .circle-outer { fill: none; stroke: #4768B0; stroke-width: 4; }
    .arrow-head { fill: #33323C; }
    .dashed-border {
      fill: none;
      stroke: #33323C;
      stroke-width: 2;
      stroke-dasharray: 5,5;
    }
  </style>

  <!-- Background -->
  <rect class="bg" width="1366" height="645" rx="8"/>

  <!-- Dashed Borders -->
  <rect class="dashed-border" x="495" y="75" width="375" height="400" rx="10"/>
  <rect class="dashed-border" x="920" y="75" width="375" height="400" rx="10"/>

  <!-- Left Panel -->
  <rect class="panel" x="60" y="61" width="355" height="450" rx="6"/>
  
  <!-- Center Panel -->
  <rect class="panel" x="515" y="148" width="335" height="280" rx="6"/>

  <!-- Right Panel -->
  <rect class="panel" x="941" y="148" width="335" height="280" rx="6"/>

  <!-- Header Labels -->
  <text class="text" x="237.5" y="109">Rancher Desktop</text>
  <text class="text" x="682.5" y="109">Mac/Linux</text>
  <text class="text" x="1108.5" y="109">Windows</text>

  <!-- Left Panel Boxes with Text -->
  <g transform="translate(0,-50)">
    <rect class="box" x="90" y="206" width="295" height="70" rx="6"/>
    <text class="text" x="237.5" y="241">nerdctl</text>
  </g>
  <g transform="translate(0,-50)">
    <rect class="box" x="90" y="296" width="295" height="70" rx="6"/>
    <text class="text" x="237.5" y="331">kubectl</text>
  </g>
  <g transform="translate(0,-50)">
    <rect class="box" x="90" y="386" width="295" height="70" rx="6"/>
    <text class="text" x="237.5" y="421">Helm</text>
  </g>
  <g transform="translate(0,-50)">
    <rect class="box" x="90" y="476" width="295" height="70" rx="6"/>
    <text class="text" x="237.5" y="511">Docker CLI</text>
  </g>
  
  <!-- Center Panel Boxes with Text -->
  <g>
    <rect class="box" x="535" y="200" width="295" height="70" rx="6"/>
    <text class="text" x="682.5" y="236">Kubernetes (k3s)</text>
  </g>
  <g>
    <rect class="box" x="535" y="300" width="295" height="70" rx="6"/>
    <text class="text" x="682.5" y="353">containerd/dockerd</text>
  </g>
  <text class="text" x="682.5" y="375">Lima/QEMU (Linux)</text>

  <!-- Right Panel Boxes with Text -->
  <g>
    <rect class="box" x="960" y="200" width="295" height="70" rx="6"/>
    <text class="text" x="1108.5" y="236">Kubernetes (k3s)</text>
  </g>
  <g>
    <rect class="box" x="960" y="318" width="295" height="70" rx="6"/>
    <text class="text" x="1108.5" y="353">containerd/dockerd</text>
  </g>
  <text class="text" x="1108.5" y="415">Windows Subsystem for Linux v2</text>

  <!-- Arrows and Circles -->
  <circle class="circle-inner" cx="415" cy="271" r="10"/>
  <circle class="circle-outer" cx="415" cy="271" r="10"/>
  <path class="arrow" d="M415 271 H475"/>
  <path class="arrow-head" d="M462 279 L475 271 L462 264Z"/>
  
  <circle class="circle-inner" cx="238" cy="512" r="10"/>
  <circle class="circle-outer" cx="238" cy="512" r="10"/>
  <path class="arrow" d="M1108 501v43c0 20-17 37-37 37H275c-20 0-37-17-37-37v-34"/>
  <path class="arrow-head" d="M1098 505 L1108 486 L1118 505Z"/>
</svg>
