<?xml version="1.0" encoding="utf-8"?>
<!-- Generator: Adobe Illustrator 26.0.0, SVG Export Plug-In . SVG Version: 6.00 Build 0)  -->
<svg version="1.1" id="Layer_1" xmlns="http://www.w3.org/2000/svg" xmlns:xlink="http://www.w3.org/1999/xlink" x="0px" y="0px"
	 viewBox="0 0 40.7155571 50" style="enable-background:new 0 0 40.7155571 50;" xml:space="preserve">
<style type="text/css">
	.st0{fill:#808080;}
</style>
<g>
	<path class="st0" d="M34.0069885,26.5690193c-0.0630112-6.3335552,5.164814-9.3712616,5.3985634-9.5247231
		c-2.9381104-4.2958841-7.5155067-4.8853331-9.1446304-4.9524107c-3.8924103-0.395339-7.5988445,2.2927637-9.5735054,2.2927637
		c-1.9705963,0-5.0215168-2.2348337-8.2492704-2.1779213C8.1920624,12.2697382,4.278307,14.6763268,2.0932715,18.477272
		c-4.4097071,7.6496582-1.1280879,18.9864349,3.1688101,25.1949883c2.1006837,3.0346565,4.6058526,6.4494133,7.8925519,6.3244057
		c3.1677942-0.1250038,4.362958-2.048851,8.192359-2.048851s4.9046421,2.048851,8.2553711,1.9848251
		c3.4066238-0.0619926,5.5662537-3.0925865,7.6496582-6.1394424c2.4116707-3.5255318,3.4045906-6.9392662,3.4635353-7.1120377
		C40.6413651,36.6466064,34.0750809,34.1312752,34.0069885,26.5690193z"/>
	<path class="st0" d="M27.7110367,7.9830027C29.4539852,5.8670754,30.6349182,2.9269316,30.3137703,0
		c-2.5153294,0.1016295-5.560154,1.6718065-7.3661118,3.7857013c-1.6179409,1.8760815-3.0326252,4.8629746-2.6535473,7.7370591
		C23.1001034,11.7402477,25.9619923,10.0948648,27.7110367,7.9830027z"/>
</g>
</svg>
