<?xml version="1.0" encoding="utf-8"?>
<!-- Generator: Adobe Illustrator 26.0.0, SVG Export Plug-In . SVG Version: 6.00 Build 0)  -->
<svg version="1.1" id="Layer_1" xmlns="http://www.w3.org/2000/svg" xmlns:xlink="http://www.w3.org/1999/xlink" x="0px" y="0px"
	 viewBox="0 0 41.2904243 50" style="enable-background:new 0 0 41.2904243 50;" xml:space="preserve">
<style type="text/css">
	.st0{fill:#808080;}
</style>
<path class="st0" d="M20.8680058,12.0400429c0.0976486,0.0488243,0.175766,0.1660023,0.292944,0.1660023
	c0.1074142,0,0.2734146-0.0390596,0.2831783-0.1464729c0.0195293-0.1367073-0.1855297-0.2245903-0.3124733-0.2831793
	c-0.1660004-0.0683537-0.380827-0.0976486-0.5370636-0.0097647c-0.0390587,0.0195293-0.0781193,0.0683537-0.0585899,0.1074123
	c0.029295,0.1269436,0.2245903,0.1074133,0.3320026,0.1660023H20.8680058z M18.7295113,12.2060452
	c0.117178,0,0.1952972-0.117178,0.2929459-0.1660023c0.1074123-0.058588,0.3027096-0.0390587,0.3417683-0.1562366
	c0.0195293-0.0390596-0.0195293-0.087883-0.0585899-0.1074123c-0.1562386-0.0878839-0.3710632-0.058589-0.5370655,0.0097647
	c-0.1269417,0.058588-0.3320026,0.146472-0.3124733,0.2831793C18.4658623,12.1669865,18.6318645,12.2158098,18.7295113,12.2060452z
	 M40.3195114,39.4303436c-0.351532-0.3905945-0.5175323-1.1327209-0.7030678-1.9236717
	c-0.1757622-0.7909508-0.380825-1.6404877-1.0253029-2.1873169c-0.1269417-0.1074142-0.2538872-0.2050591-0.3905945-0.2831764
	c-0.1269417-0.0781174-0.263649-0.1464729-0.4003563-0.1952972c0.898365-2.6657944,0.5468292-5.3218231-0.3613014-7.7239685
	c-1.1131859-2.939209-3.056385-5.5073547-4.540638-7.2650204c-1.6697826-2.0994358-3.290741-4.0914564-3.261446-7.0306654
	c0.0488281-4.482048,0.4980087-12.8114338-7.4017258-12.8211985c-9.9991693-0.0195296-7.4993763,10.096817-7.6067896,13.2020264
	c-0.1660013,2.2849665-0.6249475,4.0816917-2.1970835,6.3178349c-1.8455496,2.1970825-4.4429898,5.7417088-5.6733561,9.4425716
	c-0.5858889,1.7479019-0.859304,3.5250988-0.6054182,5.2046452c-0.6347127,0.5663567-1.1131887,1.4354286-1.6209588,1.9724922
	c-0.4101224,0.4198875-1.0057757,0.5761223-1.6600182,0.8104782s-1.3670739,0.5858879-1.8064904,1.4158974
	c-0.2050611,0.3808289-0.2734149,0.7909508-0.2734149,1.2108383c0,0.380825,0.0585889,0.7714195,0.1171778,1.1522446
	c0.1171778,0.7909508,0.2441203,1.5330772,0.0781184,2.0310822c-0.5077702,1.4061317-0.576124,2.3826141-0.2148259,3.0954475
	c0.371063,0.7128296,1.1131886,1.0253029,1.9627274,1.2010689c1.6893125,0.3515358,3.9840431,0.2636528,5.790534,1.2206039
	c1.9334335,1.0155373,3.8961601,1.3768387,5.4585295,1.0155373c1.132719-0.2538834,2.0603771-0.9374199,2.5290871-1.9724922
	c1.2206001-0.0097656,2.5681458-0.527298,4.716404-0.6444778c1.4549561-0.1171799,3.2809772,0.5175323,5.3804111,0.4003563
	c0.0585899,0.2245903,0.1367073,0.4491844,0.2441216,0.6542435v0.0097656
	c0.8104782,1.6307259,2.3240242,2.3728523,3.9352169,2.2459068c1.6209602-0.1269417,3.3298035-1.0741272,4.716404-2.7243805
	c1.3280144-1.601429,3.5153351-2.2654381,4.9702911-3.1442719c0.7225952-0.439415,1.3084831-0.986248,1.3573074-1.7869606
	c0.0390587-0.8007164-0.4296532-1.689312-1.513546-2.9001503L40.3195114,39.4303436z M21.1511841,8.5247107
	c0.956953-2.1677885,3.3395672-2.1287298,4.2965202-0.0390596c0.6347122,1.3866034,0.3515339,3.0173273-0.4198856,3.9449844
	c-0.1562386-0.0781183-0.5761242-0.2538843-1.2303677-0.4784756c0.1074142-0.117178,0.3027096-0.2636499,0.380827-0.4491816
	c0.4687099-1.1522484-0.0195293-2.6364994-0.8885975-2.6657944c-0.7128334-0.0488234-1.3573093,1.0546007-1.1522484,2.2459068
	c-0.4003582-0.1952953-0.9178925-0.3417683-1.2694263-0.4296513C20.7703571,9.9796667,20.8387108,9.2277765,21.1511841,8.5247107z
	 M17.1769066,7.4017568c0.9862461,0,2.0310802,1.3866038,1.8650799,3.2712131
	c-0.3417683,0.0976477-0.6933022,0.2441196-0.9960117,0.4491806c0.117178-0.8690681-0.3222389-1.9627275-0.9374218-1.9139032
	c-0.8202438,0.0683537-0.956953,2.0701399-0.1757679,2.7439127c0.0976486,0.0781183,0.1855316-0.0195293-0.5761223,0.5370646
	C14.8333511,11.0635624,15.331357,7.4017568,17.1769066,7.4017568z M15.8488903,13.3289986
	c0.6054192-0.4491825,1.3280163-0.9764814,1.3768387-1.0253057c0.4589462-0.4296522,1.3182507-1.3866034,2.7243824-1.3866034
	c0.6933041,0,1.5233116,0.2245913,2.5290871,0.8690691c0.6151829,0.4003572,1.1034241,0.4296513,2.2068481,0.9081268
	c0.8202438,0.3417683,1.33778,0.9471865,1.0253048,1.7771959c-0.2538853,0.6933022-1.0741291,1.4061327-2.2166119,1.7674313
	c-1.0838947,0.3515339-1.9334335,1.5623703-3.7301579,1.4549561c-0.380827-0.0195293-0.6835365-0.0976467-0.9374237-0.205061
	c-0.7811852-0.3417683-1.1913071-1.0155392-1.9529629-1.4647217c-0.8397732-0.4687119-1.2889538-1.0155401-1.4354267-1.4940166
	c-0.1367064-0.4784756,0-0.8788338,0.4101219-1.2010727V13.3289986z M16.1711292,45.9434738
	c-0.263649,3.4274521-4.2867537,3.3590965-7.3529043,1.7576675c-2.9196792-1.5428391-6.6986618-0.6347122-7.4700818-2.1384926
	c-0.2343554-0.45895-0.2343554-1.2401352,0.2538851-2.5779114v-0.0195312
	c0.2343556-0.7421265,0.058589-1.5623703-0.0585889-2.3337898c-0.1171778-0.7616539-0.1757666-1.4647217,0.0878832-1.952961
	c0.3417685-0.6542435,0.8300093-0.8885994,1.4451925-1.1034241c1.0057757-0.3612976,1.1522481-0.3320045,1.9139035-0.9667168
	c0.537065-0.5565948,0.9276576-1.2596588,1.396369-1.7576637c0.4980049-0.5370674,0.976481-0.7909508,1.7283716-0.6737747
	c0.7909498,0.1171799,1.4744864,0.6640091,2.1384945,1.5623703l1.9139032,3.4762764
	c0.9276571,1.9431953,4.2086334,4.7261696,4.0035725,6.7279549V45.9434738z M16.0344238,43.4143867
	c-0.4003592-0.6444778-0.9374237-1.3280144-1.4061337-1.9139023c0.6933031,0,1.3866043-0.2148285,1.630724-0.8690681
	c0.2245903-0.6054192,0-1.4549561-0.7225962-2.4314384c-1.3182497-1.777195-3.7399235-3.1735649-3.7399235-3.1735649
	c-1.3182497-0.8202438-2.0603752-1.8260193-2.4021435-2.9196777c-0.3417683-1.0936565-0.2929449-2.2751999-0.029295-3.4372139
	c0.5077696-2.2361431,1.8162546-4.4136963,2.6560297-5.7807693c0.2245913-0.1660023,0.0781183,0.3124733-0.8495388,2.0310802
	c-0.8300085,1.5721359-2.3826141,5.2046452-0.2538843,8.0462055c0.058588-2.0213165,0.5370646-4.0816898,1.3475437-6.0053596
	c1.1717768-2.6755581,3.6422749-7.3138447,3.8375711-11.0049438c0.1074142,0.0781193,0.4491825,0.3124733,0.6054192,0.4003582
	c0.4491806,0.263649,0.7909508,0.6542416,1.2303658,1.0057755c1.2108364,0.9764805,2.7829723,0.8983631,4.1402817,0.117178
	c0.6054173-0.3417683,1.0936584-0.7323608,1.5526047-0.8788338c0.9667149-0.3027096,1.7381344-0.8397741,2.1775513-1.4647217
	c0.7518921,2.968502,2.5095577,7.2552567,3.6325111,9.3449249c0.5956554,1.1131897,1.7869606,3.4665089,2.3044968,6.3080711
	c0.322237-0.0097656,0.6835384,0.0390587,1.0643635,0.1367073c1.3475456-3.4860401-1.1424828-7.245491-2.2751999-8.2903271
	c-0.4589462-0.4491825-0.4784756-0.6444778-0.2538853-0.6347122c1.2303677,1.0936584,2.8513279,3.2907429,3.4372158,5.76124
	c0.2734146,1.132719,0.3222389,2.3142624,0.0390587,3.4860382c1.601429,0.6640072,3.5055656,1.7479019,2.9977989,3.3981552
	c-0.2148285-0.0097656-0.3124771,0-0.4101219,0c0.3124733-0.986248-0.3808289-1.7186089-2.2263794-2.5486183
	c-1.9139023-0.8397732-3.5153313-0.8397732-3.7399216,1.2206039c-1.1815414,0.4101219-1.7869587,1.4354286-2.0896683,2.6657906
	c-0.2734146,1.0936623-0.3515339,2.411911-0.4296513,3.8961601c-0.0488243,0.7518921-0.3515339,1.7576675-0.6640072,2.8317947
	c-3.1345043,2.236145-7.4896107,3.2126236-11.1611805,0.7030678H16.0344238z M41.1690521,42.2914352
	c-0.087883,1.6404877-4.0231018,1.9431953-6.1713638,4.540638c-1.2889557,1.5330772-2.8708534,2.3826141-4.2574577,2.4900284
	s-2.5876751-0.4687119-3.2907429-1.8846092c-0.4589481-1.0838928-0.2343559-2.2556725,0.1074142-3.5446243
	c0.3612976-1.3866043,0.8983631-2.8122673,0.9667149-3.9645157c0.0781174-1.4842529,0.1660042-2.7829704,0.4101238-3.7789841
	c0.2538853-1.0057755,0.6444778-1.6795502,1.33778-2.0603752c0.0292931-0.0195312,0.0683556-0.0292931,0.0976486-0.0488243
	c0.0781174,1.2889557,0.7128296,2.5974388,1.835783,2.880619c1.2303658,0.3222389,2.9977989-0.7323608,3.7496872-1.5916634
	c0.8788338-0.0292931,1.5330772-0.087883,2.2068481,0.4980049c0.9667168,0.8300095,0.6933022,2.9587364,1.6697845,4.0621643
	c1.0350723,1.1327171,1.3670731,1.9041367,1.33778,2.4021454V42.2914352z M16.2297192,14.5203056
	c0.1952972,0.1855307,0.4589462,0.4394159,0.7811852,0.6933022c0.6444778,0.5077696,1.542841,1.0350704,2.6657944,1.0350704
	c1.132719,0,2.1970825-0.5761232,3.1052113-1.0545998c0.4784756-0.2538862,1.0643635-0.6835375,1.4451923-1.0155401
	c0.3808308-0.3320036,0.5761242-0.6151838,0.3027096-0.6444788c-0.2734127-0.029294-0.2538853,0.2538862-0.5858879,0.4980068
	c-0.4296513,0.3124733-0.9471874,0.7225952-1.3573093,0.9569521c-0.7225952,0.4101219-1.9041386,0.9960098-2.9196777,0.9960098
	c-1.0155411,0-1.8260212-0.4687109-2.4314384-0.9471865c-0.3027096-0.2441196-0.5565948-0.4882402-0.7518902-0.6737709
	c-0.1464729-0.1367073-0.1855316-0.4491825-0.4198875-0.4784756c-0.1367064-0.0097656-0.1757669,0.3612976,0.1660023,0.6347132
	L16.2297192,14.5203056z"/>
</svg>
